# xmcd
#
# Track frame offsets: 
#        150
#        12823
#        26366
#        44296
#        51850
#        69619
#        87845
#        108659
#        133871
#        152273
#        172049
#        189272
#        201626
#        221803
#        242633
#        258061
#
# Disc length: 3699 seconds
#
# Revision: 0
# Processed by: cddbd v1.5PL3 Copyright (c) Steve Scherf et al.
# Submitted via: ExactAudioCopy v0.95a5
#
DISCID=db0e7110
DTITLE=Akurat - Pomarancza
DYEAR=2001
DGENRE=Ska
TTITLE0=HaHaHaczyk
TTITLE1=Espania (jem pomarancze)
TTITLE2=Droga Dluga Jest
TTITLE3=Spokoj, Wielki Spokoj
TTITLE4=Lyzeczka
TTITLE5=Nie Same Dzwieki Zle
TTITLE6=Jak Ziola
TTITLE7=Lubie Mowic z Toba
TTITLE8=O Dziewiatce
TTITLE9=Pomaranczowa Mantra
TTITLE10=KatemPlujacy
TTITLE11=Czas Dogania Nas
TTITLE12=O Kciuk
TTITLE13=Dzwon Ciszy
TTITLE14=Nuta o Ptakach
TTITLE15=Pa pa pa ...
EXTD=
EXTT0=
EXTT1=
EXTT2=
EXTT3=
EXTT4=
EXTT5=
EXTT6=
EXTT7=
EXTT8=
EXTT9=
EXTT10=
EXTT11=
EXTT12=
EXTT13=
EXTT14=
EXTT15=
PLAYORDER=
